<?xml version="1.0" encoding="utf-8"?>
<!-- Generator: Adobe Illustrator 21.1.0, SVG Export Plug-In . SVG Version: 6.00 Build 0)  -->
<svg version="1.1" id="Layer_1" xmlns="http://www.w3.org/2000/svg" xmlns:xlink="http://www.w3.org/1999/xlink" x="0px" y="0px"
	 viewBox="0 0 14 14" style="enable-background:new 0 0 14 14;" xml:space="preserve">
<style type="text/css">
	.st0{fill:#FFFFFF;}
</style>
<g>
	<g>
		<path class="st0" d="M10,12c-0.2,0-0.5-0.1-0.7-0.2c-0.4-0.3-0.6-0.8-0.4-1.3c0.1-0.1,0.1-0.2,0.2-0.3c0.1-0.1,0.1-0.3,0.1-0.5
			c-0.3-0.7-0.6-1.3-0.9-2C8.2,7.5,8.2,7.5,7.9,7.6c-0.7,0.3-1.4,0.7-2.1,1C5.2,9,4.5,9.3,3.7,9.7C3.5,9.8,3.3,10,3.3,10.3
			c0,0.2-0.2,0.4-0.3,0.5c-0.6,0.5-1.3,0.3-1.7-0.2c-0.3-0.3-0.3-0.8,0-1.2C1.4,9.1,1.7,9,2,9c0.4,0,0.6-0.2,0.7-0.5
			c0.7-1.5,1.4-3,2.2-4.5C5,3.8,5.1,3.6,5.3,3.4c0.1-0.3,0.1-0.5-0.1-0.7C4.7,2.2,4.9,1.4,5.5,1.1C6.1,0.8,6.7,1,7.1,1.5
			c0.2,0.3,0.2,0.6,0,1C7.1,2.6,7,2.7,6.9,2.8C6.7,2.9,6.7,2.9,6.8,3.1c0.3,0.7,0.6,1.4,0.9,2.1c0.2,0.4,0.4,0.9,0.6,1.3
			c0.1,0.2,0.2,0.3,0.4,0.2C9.3,6.5,9.8,6.2,10.3,6c0.1,0,0.2-0.1,0.2-0.1c0.1-0.1,0.2-0.2,0.2-0.3c-0.1-0.6,0.4-1,0.9-1.1
			c0.4-0.1,0.7,0,1,0.3c0.5,0.4,0.6,1.3-0.2,1.7c-0.3,0.1-0.5,0.2-0.8,0.1c-0.1,0-0.1,0-0.2-0.1c-0.3-0.2-0.5-0.2-0.8-0.1
			c-0.3,0.1-0.5,0.3-0.8,0.4C9.5,6.8,9.1,7,8.8,7.1C8.6,7.2,8.6,7.3,8.7,7.5C9,8.2,9.3,8.9,9.6,9.6c0.1,0.2,0.2,0.3,0.5,0.3
			c0.3,0,0.5,0.1,0.8,0.4c0.4,0.4,0.4,1.2-0.1,1.5C10.5,11.9,10.2,12,10,12z M3.3,9.4c0.1,0,0.3-0.1,0.4-0.2c1.4-0.7,2.8-1.3,4.1-2
			C8,7.1,8,7.1,7.9,6.8C7.7,6.3,7.5,5.7,7.2,5.2C6.9,4.6,6.7,3.9,6.4,3.3C6.3,3.2,6.2,3.1,6.1,3.1c-0.2,0-0.3,0.1-0.3,0.2
			c0,0.1-0.1,0.2-0.1,0.3C5.1,4.7,4.5,5.9,3.9,7.1C3.6,7.7,3.3,8.4,3,9.1C2.9,9.3,3,9.4,3.3,9.4z"/>
	</g>
</g>
</svg>
